<svg width="92" height="189" viewBox="0 0 92 189" fill="none" xmlns="http://www.w3.org/2000/svg">
<circle cx="51.4995" cy="95.7998" r="3" fill="#C1DBD7"/>
<circle cx="63.4995" cy="95.7998" r="3" fill="#C1DBD7"/>
<path d="M42.4995 61.5996C63.0428 61.5996 79.6995 78.262 79.6997 98.8193C79.6997 109.134 76.6042 116.426 70.1841 124.468C63.9629 132.261 54.9292 140.414 42.603 152.455C37.2355 146.794 32.3409 141.935 28.0181 137.603C22.9953 132.568 18.7992 128.293 15.3989 124.195C8.72508 116.153 5.29932 109.023 5.29932 98.8193C5.2995 78.2621 21.9564 61.5997 42.4995 61.5996Z" stroke="#C1DBD7" stroke-width="7.2"/>
<mask id="path-4-inside-1_209_1053" fill="white">
<path d="M70.1328 149.717C76.2412 146.097 84.2491 146.913 89.501 152.165C92.61 155.274 92.61 160.315 89.501 163.424L70.1533 182.771L70.1338 182.752L69.7637 183.123L39.5283 152.889L56.417 136L70.1328 149.717Z"/>
</mask>
<path d="M70.1328 149.717L65.0415 154.808L68.9942 158.761L73.8034 155.911L70.1328 149.717ZM89.501 152.165L94.5922 147.074L94.5921 147.074L89.501 152.165ZM89.501 163.424L84.4098 158.333L89.501 163.424ZM70.1533 182.771L65.0622 187.863L70.1533 192.954L75.2445 187.863L70.1533 182.771ZM70.1338 182.752L75.225 177.661L70.1271 172.563L65.0359 177.667L70.1338 182.752ZM69.7637 183.123L64.6726 188.214L69.7705 193.312L74.8615 188.208L69.7637 183.123ZM39.5283 152.889L34.4372 147.798L29.3459 152.889L34.4372 157.98L39.5283 152.889ZM56.417 136L61.5083 130.909L56.4172 125.817L51.3258 130.909L56.417 136ZM70.1328 149.717L73.8034 155.911C77.1508 153.927 81.5397 154.386 84.4098 157.256L89.501 152.165L94.5921 147.074C86.9585 139.44 75.3316 138.267 66.4623 143.523L70.1328 149.717ZM89.501 152.165L84.4098 157.256C84.7071 157.553 84.707 158.035 84.4098 158.333L89.501 163.424L94.5921 168.515C100.513 162.594 100.513 152.995 94.5922 147.074L89.501 152.165ZM89.501 163.424L84.4098 158.333L65.0622 177.68L70.1533 182.771L75.2445 187.863L94.5921 168.515L89.501 163.424ZM70.1533 182.771L75.2445 177.68L75.225 177.661L70.1338 182.752L65.0426 187.843L65.0622 187.863L70.1533 182.771ZM70.1338 182.752L65.0359 177.667L64.6658 178.039L69.7637 183.123L74.8615 188.208L75.2317 187.836L70.1338 182.752ZM69.7637 183.123L74.8548 178.032L44.6194 147.797L39.5283 152.889L34.4372 157.98L64.6726 188.214L69.7637 183.123ZM39.5283 152.889L44.6195 157.98L61.5082 141.091L56.417 136L51.3258 130.909L34.4372 147.798L39.5283 152.889ZM56.417 136L51.3256 141.091L65.0415 154.808L70.1328 149.717L75.2242 144.626L61.5083 130.909L56.417 136Z" fill="#C1DBD7" mask="url(#path-4-inside-1_209_1053)"/>
<mask id="path-6-inside-2_209_1053" fill="white">
<path d="M33.9062 166.604C37.526 172.713 36.7099 180.721 31.458 185.973C28.349 189.082 23.3082 189.082 20.1992 185.973L0.851561 166.625L0.871092 166.605L0.499999 166.235L30.7344 136L47.623 152.889L33.9062 166.604Z"/>
</mask>
<path d="M33.9062 166.604L28.8153 161.513L24.8623 165.466L27.7121 170.275L33.9062 166.604ZM31.458 185.973L36.5491 191.064L36.5492 191.064L31.458 185.973ZM20.1992 185.973L15.108 191.064L20.1992 185.973ZM0.851561 166.625L-4.23961 161.534L-9.33078 166.625L-4.23961 171.716L0.851561 166.625ZM0.871092 166.605L5.96226 171.697L11.0601 166.599L5.95555 161.508L0.871092 166.605ZM0.499999 166.235L-4.59125 161.144L-9.68897 166.242L-4.58446 171.333L0.499999 166.235ZM30.7344 136L35.8255 130.909L30.7343 125.818L25.6431 130.909L30.7344 136ZM47.623 152.889L52.714 157.98L57.8056 152.889L52.7142 147.798L47.623 152.889ZM33.9062 166.604L27.7121 170.275C29.6958 173.622 29.2369 178.011 26.3668 180.881L31.458 185.973L36.5492 191.064C44.1829 183.43 45.3562 171.803 40.1004 162.934L33.9062 166.604ZM31.458 185.973L26.3669 180.881C26.0696 181.179 25.5876 181.179 25.2904 180.881L20.1992 185.973L15.108 191.064C21.0289 196.985 30.6284 196.985 36.5491 191.064L31.458 185.973ZM20.1992 185.973L25.2904 180.881L5.94273 161.534L0.851561 166.625L-4.23961 171.716L15.108 191.064L20.1992 185.973ZM0.851561 166.625L5.94273 171.716L5.96226 171.697L0.871092 166.605L-4.22007 161.514L-4.23961 161.534L0.851561 166.625ZM0.871092 166.605L5.95555 161.508L5.58446 161.137L0.499999 166.235L-4.58446 171.333L-4.21337 171.703L0.871092 166.605ZM0.499999 166.235L5.59125 171.326L35.8256 141.091L30.7344 136L25.6431 130.909L-4.59125 161.144L0.499999 166.235ZM30.7344 136L25.6432 141.091L42.5319 157.98L47.623 152.889L52.7142 147.798L35.8255 130.909L30.7344 136ZM47.623 152.889L42.5321 147.797L28.8153 161.513L33.9062 166.604L38.9972 171.696L52.714 157.98L47.623 152.889Z" fill="#C1DBD7" mask="url(#path-6-inside-2_209_1053)"/>
<path d="M50.0996 0C56.0642 0 60.9003 4.83522 60.9004 10.7998V30C60.9004 35.9647 56.0643 40.7998 50.0996 40.7998H44.1221L42.1885 47.7861L40.2549 40.7998H34.2998C28.3352 40.7997 23.5 35.9646 23.5 30V10.7998C23.5001 4.83528 28.3353 0.000105899 34.2998 0H50.0996Z" fill="#C1DBD7"/>
<path d="M37.7699 23.123C37.0844 23.1143 36.5131 22.5605 36.5219 21.875C36.5131 21.1895 37.0844 20.627 37.7699 20.627C38.4467 20.627 39.0092 21.1895 39.018 21.875C39.0092 22.5605 38.4467 23.1143 37.7699 23.123ZM42 23.123C41.3145 23.1143 40.7432 22.5605 40.752 21.875C40.7432 21.1895 41.3145 20.627 42 20.627C42.6768 20.627 43.2393 21.1895 43.248 21.875C43.2393 22.5605 42.6768 23.1143 42 23.123ZM46.2301 23.123C45.5445 23.1143 44.9733 22.5605 44.982 21.875C44.9733 21.1895 45.5445 20.627 46.2301 20.627C46.9069 20.627 47.4694 21.1895 47.4781 21.875C47.4694 22.5605 46.9069 23.1143 46.2301 23.123Z" fill="white"/>
</svg>
