<svg width="25" height="26" viewBox="0 0 25 26" fill="currentColor" xmlns="http://www.w3.org/2000/svg">
<path fill-rule="evenodd" clip-rule="evenodd" d="M12.5272 0C9.23057 0 6.22736 1.07765 4.45024 1.95811C4.28968 2.03756 4.13982 2.11508 4.00067 2.19068C3.7248 2.33947 3.4898 2.47815 3.30296 2.60022L5.32457 5.54568L6.27625 5.92055C9.99542 7.77754 14.983 7.77754 18.7029 5.92055L19.7831 5.36584L21.6945 2.60022C21.2981 2.34533 20.8864 2.1145 20.4618 1.90899C18.6934 1.03792 15.7617 0 12.5279 0M7.82639 3.33406C7.11069 3.20076 6.40368 3.02517 5.70918 2.80823C7.3739 2.07656 9.85457 1.30011 12.5279 1.30011C14.3795 1.30011 16.1303 1.67281 17.5783 2.14518C15.8814 2.38137 14.0707 2.78223 12.3454 3.27555C10.988 3.66414 9.40135 3.62225 7.82639 3.33406ZM19.4743 6.99169L19.2948 7.08126C15.2034 9.12387 9.77648 9.12387 5.6851 7.08126L5.51505 6.99603C-0.632233 13.6706 -5.32498 26 12.5272 26C30.3793 26 25.5727 13.4417 19.4743 6.99169ZM11.7689 13.0011C11.3818 13.0011 11.0105 13.1533 10.7368 13.4242C10.463 13.6951 10.3092 14.0625 10.3092 14.4456C10.3092 14.8288 10.463 15.1962 10.7368 15.4671C11.0105 15.738 11.3818 15.8902 11.7689 15.8902V13.0011ZM13.2285 11.5565V10.8342H11.7689V11.5565C10.9946 11.5565 10.2521 11.8609 9.70464 12.4027C9.15717 12.9445 8.8496 13.6794 8.8496 14.4456C8.8496 15.2119 9.15717 15.9468 9.70464 16.4886C10.2521 17.0304 10.9946 17.3348 11.7689 17.3348V20.2239C11.1339 20.2239 10.5931 19.823 10.3917 19.2611C10.3618 19.1692 10.3136 19.0841 10.2499 19.0109C10.1862 18.9377 10.1084 18.878 10.0209 18.8351C9.9335 18.7922 9.83825 18.7671 9.74085 18.7613C9.64344 18.7555 9.54584 18.7691 9.45383 18.8013C9.36182 18.8335 9.27727 18.8836 9.20517 18.9486C9.13307 19.0137 9.07488 19.0924 9.03406 19.1802C8.99324 19.2679 8.97061 19.3628 8.96751 19.4593C8.96441 19.5559 8.9809 19.652 9.016 19.7421C9.21723 20.3056 9.59003 20.7934 10.0831 21.1384C10.5761 21.4834 11.1651 21.6686 11.7689 21.6685V22.3908H13.2285V21.6685C14.0028 21.6685 14.7453 21.3641 15.2928 20.8223C15.8402 20.2804 16.1478 19.5456 16.1478 18.7793C16.1478 18.0131 15.8402 17.2782 15.2928 16.7364C14.7453 16.1946 14.0028 15.8902 13.2285 15.8902V13.0011C13.8635 13.0011 14.4043 13.4019 14.6057 13.9639C14.6356 14.0558 14.6838 14.1409 14.7475 14.2141C14.8112 14.2872 14.889 14.347 14.9765 14.3899C15.0639 14.4328 15.1592 14.4579 15.2566 14.4637C15.354 14.4695 15.4516 14.4559 15.5436 14.4237C15.6356 14.3915 15.7202 14.3414 15.7923 14.2764C15.8644 14.2113 15.9225 14.1325 15.9634 14.0448C16.0042 13.9571 16.0268 13.8622 16.0299 13.7656C16.033 13.6691 16.0165 13.573 15.9814 13.4828C15.7802 12.9194 15.4074 12.4316 14.9144 12.0866C14.4213 11.7416 13.8323 11.5564 13.2285 11.5565ZM13.2285 17.3348V20.2239C13.6157 20.2239 13.9869 20.0717 14.2607 19.8008C14.5344 19.5299 14.6882 19.1625 14.6882 18.7793C14.6882 18.3962 14.5344 18.0288 14.2607 17.7579C13.9869 17.487 13.6157 17.3348 13.2285 17.3348Z"/>
</svg>
