<svg width="25" height="24" viewBox="0 0 25 24" fill="none" xmlns="http://www.w3.org/2000/svg">
<path d="M3.75 9.8541C3.75 8.83011 4.58011 8 5.6041 8V8C6.30638 8 6.94839 7.60322 7.26246 6.97508L8.08333 5.33333C8.19329 5.11342 8.24827 5.00346 8.31062 4.90782C8.6359 4.40882 9.16668 4.08078 9.75848 4.01299C9.8719 4 9.99484 4 10.2407 4H15.2593C15.5052 4 15.6281 4 15.7415 4.01299C16.3333 4.08078 16.8641 4.40882 17.1894 4.90782C17.2517 5.00346 17.3067 5.11342 17.4167 5.33333L18.2375 6.97508C18.5516 7.60322 19.1936 8 19.8959 8V8C20.9199 8 21.75 8.83011 21.75 9.8541V14.8571C21.75 16.8619 21.75 17.8643 21.2902 18.5961C21.0504 18.9777 20.7277 19.3004 20.3461 19.5402C19.6143 20 18.6119 20 16.6071 20H8.89286C6.8881 20 5.88571 20 5.1539 19.5402C4.77229 19.3004 4.44961 18.9777 4.20983 18.5961C3.75 17.8643 3.75 16.8619 3.75 14.8571V9.8541Z" stroke="#475569" stroke-width="2"/>
<circle cx="12.75" cy="13" r="3" stroke="#475569" stroke-width="2"/>
</svg>
