<svg width="42" height="43" viewBox="0 0 42 43" fill="none" xmlns="http://www.w3.org/2000/svg">
<path fill-rule="evenodd" clip-rule="evenodd" d="M21 42.5C23.7578 42.5 26.4885 41.9568 29.0364 40.9015C31.5842 39.8461 33.8992 38.2993 35.8492 36.3492C37.7993 34.3992 39.3461 32.0842 40.4015 29.5364C41.4568 26.9885 42 24.2578 42 21.5C42 18.7422 41.4568 16.0115 40.4015 13.4636C39.3461 10.9158 37.7993 8.60079 35.8492 6.65076C33.8992 4.70073 31.5842 3.15388 29.0364 2.09853C26.4885 1.04318 23.7578 0.5 21 0.5C15.4305 0.5 10.089 2.71249 6.15076 6.65076C2.21249 10.589 0 15.9305 0 21.5C0 27.0695 2.21249 32.411 6.15076 36.3492C10.089 40.2875 15.4305 42.5 21 42.5ZM20.4587 29.9933L32.1253 15.9933L28.5413 13.0067L18.508 25.0443L13.3163 19.8503L10.017 23.1497L17.017 30.1497L18.823 31.9557L20.4587 29.9933Z" fill="#1DA79A"/>
</svg>
