<svg viewBox="0 0 21 24" fill="current-color" xmlns="http://www.w3.org/2000/svg">
<path d="M4.94444 0C3.7657 0 2.63524 0.505713 1.80175 1.40589C0.968252 2.30606 0.5 3.52696 0.5 4.8V19.2C0.5 20.473 0.968252 21.6939 1.80175 22.5941C2.63524 23.4943 3.7657 24 4.94444 24H20.5V0H4.94444ZM9.38889 3.6H17.1667V6H9.38889V3.6ZM2.72222 19.2C2.72222 18.5635 2.95635 17.953 3.3731 17.5029C3.78984 17.0529 4.35507 16.8 4.94444 16.8H18.2778V21.6H4.94444C4.35507 21.6 3.78984 21.3471 3.3731 20.8971C2.95635 20.447 2.72222 19.8365 2.72222 19.2Z"/>
</svg>
