<svg viewBox="0 0 27 24" fill="current-color" xmlns="http://www.w3.org/2000/svg">
<path d="M26.5 14.4985V20.2105C26.5 21.2156 26.0891 22.1794 25.3577 22.8901C24.6263 23.6008 23.6343 24 22.6 24H4.4C3.36566 24 2.37368 23.6008 1.64228 22.8901C0.910892 22.1794 0.5 21.2156 0.5 20.2105V14.4985L1.2189 14.8484C5.02911 16.7131 9.23605 17.6842 13.5023 17.6838C17.7685 17.6833 21.9752 16.7114 25.785 14.8459L26.5 14.4985ZM16.1 0C17.1343 0 18.1263 0.399247 18.8577 1.10991C19.5891 1.82058 20 2.78444 20 3.78947V5.05263H22.6C23.6343 5.05263 24.6263 5.45188 25.3577 6.16254C26.0891 6.87321 26.5 7.83707 26.5 8.8421V11.6741L24.6189 12.5886C21.2532 14.2372 17.5439 15.1155 13.775 15.1562C10.0062 15.1969 6.27766 14.399 2.8751 12.8236L2.034 12.4194L0.5 11.6741V8.8421C0.5 7.83707 0.910892 6.87321 1.64228 6.16254C2.37368 5.45188 3.36566 5.05263 4.4 5.05263H7V3.78947C7 2.78444 7.41089 1.82058 8.14228 1.10991C8.87368 0.399247 9.86565 0 10.9 0H16.1ZM13.5 10.1053C13.1552 10.1053 12.8246 10.2383 12.5808 10.4752C12.337 10.7121 12.2 11.0334 12.2 11.3684C12.1991 11.5343 12.2319 11.6987 12.2965 11.8523C12.361 12.0059 12.4561 12.1456 12.5762 12.2635C12.6963 12.3813 12.8391 12.4751 12.9965 12.5393C13.1539 12.6036 13.3228 12.6371 13.4935 12.6379C13.6642 12.6387 13.8334 12.6069 13.9915 12.5442C14.1495 12.4814 14.2933 12.3891 14.4146 12.2724C14.536 12.1557 14.6324 12.0169 14.6986 11.864C14.7647 11.711 14.7991 11.5469 14.8 11.3811C14.8 10.6712 14.2176 10.1053 13.5 10.1053ZM16.1 2.52632H10.9C10.5552 2.52632 10.2246 2.6594 9.98076 2.89629C9.73696 3.13317 9.6 3.45446 9.6 3.78947V5.05263H17.4V3.78947C17.4 3.45446 17.263 3.13317 17.0192 2.89629C16.7754 2.6594 16.4448 2.52632 16.1 2.52632Z"/>
</svg>
