<svg width="20" height="24" viewBox="0 0 20 24" fill="none" xmlns="http://www.w3.org/2000/svg">
<path d="M9.99219 1C14.9311 1 19 5.01955 19 9.98145C19 12.5171 18.097 14.8937 16.5742 16.9355C14.8417 19.2583 12.7063 21.2816 10.3057 22.8682L10.3018 22.8711C10.1213 22.9915 10.0359 22.9996 10.0078 23C9.98848 23.0002 9.93082 22.9984 9.81934 22.9424L9.68945 22.8662C7.27637 21.2802 5.14301 19.259 3.42773 16.9395L3.42578 16.9355L3.14746 16.5488C1.79292 14.5962 1.00003 12.3589 1 9.98145C1 5.01859 5.06977 1.00006 9.99219 1Z" fill="#475569" stroke="white" stroke-width="2"/>
<ellipse cx="10.045" cy="10.2463" rx="2.98643" ry="3.04615" fill="white"/>
</svg>
