<svg width="29" height="29" viewBox="0 0 29 29" fill="none" xmlns="http://www.w3.org/2000/svg">
<path d="M14.5 0C15.0016 0 15.4827 0.199262 15.8374 0.55395C16.192 0.908638 16.3913 1.3897 16.3913 1.8913V12.6087H27.1087C27.6103 12.6087 28.0914 12.808 28.446 13.1626C28.8007 13.5173 29 13.9984 29 14.5C29 15.0016 28.8007 15.4827 28.446 15.8374C28.0914 16.192 27.6103 16.3913 27.1087 16.3913H16.3913V27.1087C16.3913 27.6103 16.192 28.0914 15.8374 28.446C15.4827 28.8007 15.0016 29 14.5 29C13.9984 29 13.5173 28.8007 13.1626 28.446C12.808 28.0914 12.6087 27.6103 12.6087 27.1087V16.3913H1.8913C1.3897 16.3913 0.908638 16.192 0.55395 15.8374C0.199262 15.4827 0 15.0016 0 14.5C0 13.9984 0.199262 13.5173 0.55395 13.1626C0.908638 12.808 1.3897 12.6087 1.8913 12.6087H12.6087V1.8913C12.6087 1.3897 12.808 0.908638 13.1626 0.55395C13.5173 0.199262 13.9984 0 14.5 0Z" fill="#D9D9D9"/>
</svg>
