<svg viewBox="0 0 27 26" fill="current-color" stroke="current-color" xmlns="http://www.w3.org/2000/svg">
<path d="M13.5 10.3333C14.1128 10.3333 14.7197 10.2126 15.2859 9.97811C15.852 9.74358 16.3665 9.39984 16.7998 8.9665C17.2332 8.53316 17.5769 8.01871 17.8114 7.45252C18.046 6.88634 18.1667 6.2795 18.1667 5.66667C18.1667 5.05383 18.046 4.447 17.8114 3.88081C17.5769 3.31462 17.2332 2.80018 16.7998 2.36684C16.3665 1.9335 15.852 1.58975 15.2859 1.35523C14.7197 1.12071 14.1128 1 13.5 1C12.2623 1 11.0753 1.49167 10.2002 2.36684C9.325 3.24201 8.83333 4.42899 8.83333 5.66667C8.83333 6.90434 9.325 8.09133 10.2002 8.9665C11.0753 9.84167 12.2623 10.3333 13.5 10.3333ZM1.5 24.2V25H25.5V24.2C25.5 21.2133 25.5 19.72 24.9187 18.5787C24.4073 17.5752 23.5915 16.7593 22.588 16.248C21.4467 15.6667 19.9533 15.6667 16.9667 15.6667H10.0333C7.04667 15.6667 5.55333 15.6667 4.412 16.248C3.40851 16.7593 2.59265 17.5752 2.08133 18.5787C1.5 19.72 1.5 21.2133 1.5 24.2Z" stroke-width="2" stroke-linecap="round" stroke-linejoin="round"/>
</svg>
