<svg width="40" height="40" viewBox="0 0 40 40" fill="currentColor" xmlns="http://www.w3.org/2000/svg">
<path d="M29.5381 7.93164C31.1938 7.37972 32.022 7.10403 32.459 7.54102C32.896 7.97803 32.6203 8.80612 32.0684 10.4619L25.2305 30.9746C24.4461 33.3278 24.0538 34.5049 23.333 34.5049C22.6123 34.5047 22.2199 33.3277 21.4355 30.9746L18.6865 22.7266L25.707 15.707C26.0973 15.3165 26.0973 14.6834 25.707 14.293C25.3166 13.9027 24.6834 13.9027 24.293 14.293L17.2725 21.3125L9.02539 18.5645C6.67231 17.7801 5.49525 17.3877 5.49512 16.667C5.49512 15.9462 6.67218 15.5539 9.02539 14.7695L29.5381 7.93164Z"/>
</svg>
