<svg width="32" height="32" viewBox="0 0 32 32" fill="none" xmlns="http://www.w3.org/2000/svg">
<path d="M13.3334 20L13.3334 16" stroke="black" stroke-width="2" stroke-linecap="round"/>
<path d="M18.6666 20L18.6666 16" stroke="black" stroke-width="2" stroke-linecap="round"/>
<path d="M4 9.33301H28V9.33301C26.1144 9.33301 25.1716 9.33301 24.5858 9.91879C24 10.5046 24 11.4474 24 13.333V22.6663C24 24.552 24 25.4948 23.4142 26.0806C22.8284 26.6663 21.8856 26.6663 20 26.6663H12C10.1144 26.6663 9.17157 26.6663 8.58579 26.0806C8 25.4948 8 24.552 8 22.6663V13.333C8 11.4474 8 10.5046 7.41421 9.91879C6.82843 9.33301 5.88562 9.33301 4 9.33301V9.33301Z" stroke="black" stroke-width="2" stroke-linecap="round"/>
<path d="M13.4242 4.49412C13.5761 4.35237 13.9109 4.2271 14.3766 4.13776C14.8423 4.04843 15.4129 4 16 4C16.587 4 17.1576 4.04842 17.6233 4.13776C18.089 4.2271 18.4238 4.35236 18.5758 4.49412" stroke="black" stroke-width="2" stroke-linecap="round"/>
</svg>
